<svg width="30" height="31" viewBox="0 0 30 31" fill="none" xmlns="http://www.w3.org/2000/svg">
<path d="M21.9884 4.56201C20.6211 4.56093 19.2792 4.9313 18.106 5.63357C17.2554 3.68114 15.7616 2.07901 13.8734 1.09397C11.9852 0.108932 9.81654 -0.199566 7.72856 0.219845C5.64058 0.639257 3.75928 1.76127 2.39793 3.39904C1.03658 5.03681 0.277341 7.0915 0.246643 9.22097V15.4329C0.248873 17.6333 1.02973 19.7619 2.45093 21.4418C3.87213 23.1216 5.84196 24.2443 8.01157 24.6111V29.4098C8.01157 29.8217 8.17519 30.2167 8.46643 30.5079C8.75767 30.7992 9.15268 30.9628 9.56456 30.9628C9.97643 30.9628 10.3714 30.7992 10.6627 30.5079C10.9539 30.2167 11.1175 29.8217 11.1175 29.4098V24.6111C12.6996 24.3365 14.1855 23.663 15.4348 22.6543C15.9893 23.5442 16.7182 24.3125 17.5776 24.9131C18.4371 25.5136 19.4092 25.9339 20.4355 26.1485V29.4098C20.4355 29.8217 20.5991 30.2167 20.8903 30.5079C21.1816 30.7992 21.5766 30.9628 21.9884 30.9628C22.4003 30.9628 22.7953 30.7992 23.0866 30.5079C23.3778 30.2167 23.5414 29.8217 23.5414 29.4098V26.1485C25.2953 25.7905 26.8716 24.8375 28.0036 23.4508C29.1356 22.0641 29.7537 20.3289 29.7534 18.5389V12.3269C29.7534 10.2676 28.9353 8.29251 27.4791 6.83631C26.0229 5.3801 24.0478 4.56201 21.9884 4.56201ZM14.2235 12.3269V18.5389C14.2384 18.8354 14.2695 19.1309 14.3167 19.4241C13.4861 20.4133 12.3679 21.119 11.1175 21.443V16.9859C11.1175 16.574 10.9539 16.179 10.6627 15.8878C10.3714 15.5965 9.97643 15.4329 9.56456 15.4329C9.15268 15.4329 8.75767 15.5965 8.46643 15.8878C8.17519 16.179 8.01157 16.574 8.01157 16.9859V21.4274C6.68148 21.084 5.50273 20.3094 4.65975 19.2247C3.81676 18.1401 3.35708 16.8066 3.35261 15.4329V9.22097C3.34856 7.99033 3.71013 6.78622 4.39146 5.76138C5.07279 4.73655 6.04316 3.93718 7.17949 3.46468C8.31581 2.99218 9.56688 2.86785 10.774 3.10745C11.9811 3.34706 13.0898 3.9398 13.9595 4.81049C14.8002 5.66251 15.3726 6.74241 15.6057 7.91646C14.7079 9.21224 14.2259 10.7506 14.2235 12.3269ZM26.6474 18.5389C26.6447 19.5001 26.3448 20.4369 25.7887 21.221C25.2326 22.005 24.4477 22.5979 23.5414 22.9183V16.9859C23.5414 16.574 23.3778 16.179 23.0866 15.8878C22.7953 15.5965 22.4003 15.4329 21.9884 15.4329C21.5766 15.4329 21.1816 15.5965 20.8903 15.8878C20.5991 16.179 20.4355 16.574 20.4355 16.9859V22.9183C19.5292 22.5979 18.7443 22.005 18.1882 21.221C17.6321 20.4369 17.3322 19.5001 17.3295 18.5389V12.3269C17.3295 11.0913 17.8203 9.90629 18.6941 9.03256C19.5678 8.15884 20.7528 7.66798 21.9884 7.66798C23.2241 7.66798 24.4091 8.15884 25.2828 9.03256C26.1565 9.90629 26.6474 11.0913 26.6474 12.3269V18.5389Z" fill="black"/>
</svg>
