<svg width="32" height="33" viewBox="0 0 32 33" fill="none" xmlns="http://www.w3.org/2000/svg">
<g clip-path="url(#clip0_1_718)">
<path d="M10.8 18.2866L14.5733 14.5133L5.21332 5.16661C3.13332 7.24661 3.13332 10.6199 5.21332 12.7133L10.8 18.2866ZM19.84 15.8733C21.88 16.8199 24.7467 16.1533 26.8667 14.0333C29.4133 11.4866 29.9067 7.83328 27.9467 5.87328C26 3.92661 22.3467 4.40661 19.7867 6.95328C17.6667 9.07328 17 11.9399 17.9467 13.9799L4.93332 26.9933L6.81332 28.8733L16 19.7133L25.1733 28.8866L27.0533 27.0066L17.88 17.8333L19.84 15.8733Z" fill="black"/>
</g>
<defs>
<clipPath id="clip0_1_718">
<rect width="32" height="32" fill="white" transform="translate(0 0.5)"/>
</clipPath>
</defs>
</svg>
