<svg width="32" height="33" viewBox="0 0 32 33" fill="none" xmlns="http://www.w3.org/2000/svg">
<path d="M16.0001 32.4999C15.7899 32.5 15.5818 32.4586 15.3877 32.3783C15.1935 32.2979 15.0171 32.18 14.8686 32.0314C14.72 31.8829 14.6021 31.7064 14.5217 31.5123C14.4413 31.3182 14.4 31.1101 14.4001 30.8999V2.1C14.4001 1.67565 14.5686 1.26869 14.8687 0.968628C15.1687 0.668571 15.5757 0.5 16.0001 0.5C16.4244 0.5 16.8314 0.668571 17.1314 0.968628C17.4315 1.26869 17.6 1.67565 17.6 2.1V30.8999C17.6001 31.1101 17.5588 31.3182 17.4784 31.5123C17.398 31.7064 17.2801 31.8829 17.1315 32.0314C16.983 32.18 16.8066 32.2979 16.6124 32.3783C16.4183 32.4586 16.2102 32.5 16.0001 32.4999Z" fill="black"/>
<path d="M30.4 16.5L22.4001 8.5V24.5L30.4 16.5Z" fill="black"/>
<path d="M22.4 26.1C21.9757 26.1 21.5687 25.9314 21.2687 25.6313C20.9686 25.3313 20.8 24.9243 20.8 24.5V8.50001C20.8 8.18358 20.8939 7.87425 21.0697 7.61115C21.2455 7.34805 21.4954 7.14299 21.7877 7.02191C22.0801 6.90083 22.4017 6.86916 22.7121 6.9309C23.0224 6.99265 23.3075 7.14504 23.5312 7.36881L31.5312 15.3688C31.6798 15.5173 31.7977 15.6937 31.8782 15.8878C31.9586 16.0819 32 16.2899 32 16.5C32 16.7101 31.9586 16.9182 31.8782 17.1123C31.7977 17.3064 31.6798 17.4828 31.5312 17.6313L23.5312 25.6313C23.3828 25.7799 23.2064 25.8978 23.0123 25.9782C22.8182 26.0587 22.6102 26.1 22.4 26.1ZM24 12.3625V20.6375L28.1375 16.5L24 12.3625Z" fill="black"/>
<path d="M1.60007 18.1C1.33666 18.1024 1.07679 18.0392 0.843946 17.9161C0.611101 17.7929 0.412622 17.6136 0.26645 17.3945C0.120278 17.1753 0.0310202 16.9232 0.00674554 16.6609C-0.0175291 16.3986 0.0239444 16.1344 0.127417 15.8922C0.208591 15.6981 0.322462 15.5195 0.464072 15.364C0.773429 15.0784 1.17899 14.9198 1.60001 14.9198C2.02102 14.9198 2.42658 15.0784 2.73594 15.364C2.88043 15.5171 2.99445 15.6963 3.07194 15.8921C3.16165 16.0819 3.20554 16.2901 3.20007 16.5C3.20212 16.7107 3.16213 16.9196 3.08245 17.1147C3.00276 17.3097 2.88499 17.4869 2.736 17.6359C2.58702 17.7849 2.40982 17.9027 2.21478 17.9823C2.01973 18.062 1.81075 18.102 1.60007 18.1ZM4.46407 21.636C4.16419 21.334 3.9959 20.9256 3.9959 20.5C3.9959 20.0744 4.16419 19.6661 4.46407 19.3641C4.76589 19.0639 5.17429 18.8953 5.6 18.8953C6.02571 18.8953 6.43411 19.0639 6.73593 19.3641C7.03546 19.6663 7.20352 20.0745 7.20352 20.5C7.20352 20.9255 7.03546 21.3338 6.73593 21.636C6.43135 21.9314 6.0243 22.0977 5.59994 22.1C5.17556 22.098 4.76846 21.9317 4.46407 21.636ZM9.60006 26.1C9.38938 26.1019 9.18043 26.0619 8.98539 25.9822C8.79035 25.9025 8.61313 25.7848 8.46406 25.636C8.32276 25.4802 8.20891 25.3016 8.12734 25.1078C8.04558 24.9155 8.00234 24.709 8.00006 24.5C8.00595 24.0763 8.17168 23.6706 8.46406 23.364C8.69319 23.1488 8.97864 23.003 9.28729 22.9435C9.59594 22.8841 9.91512 22.9133 10.2078 23.028C10.4017 23.1091 10.5803 23.2227 10.7359 23.364C11.028 23.6708 11.1938 24.0764 11.2001 24.5C11.1975 24.709 11.154 24.9155 11.0719 25.1078C10.9903 25.3014 10.8767 25.4799 10.7359 25.6359C10.5869 25.7848 10.4097 25.9025 10.2147 25.9821C10.0196 26.0618 9.81071 26.1019 9.60006 26.1ZM8.00006 19.1718C7.99921 18.9615 8.04002 18.753 8.12013 18.5585C8.20023 18.364 8.31806 18.1873 8.4668 18.0386C8.61554 17.8898 8.79226 17.772 8.98676 17.6919C9.18127 17.6118 9.3897 17.571 9.60006 17.5718C9.81039 17.5711 10.0188 17.6119 10.2133 17.692C10.4077 17.7722 10.5844 17.89 10.7332 18.0387C10.8819 18.1875 10.9997 18.3642 11.0798 18.5586C11.16 18.7531 11.2008 18.9615 11.2001 19.1718C11.1987 19.5958 11.0297 20.002 10.7299 20.3017C10.4302 20.6015 10.024 20.7705 9.60006 20.7718C9.17608 20.7706 8.76982 20.6017 8.47003 20.3019C8.17024 20.0021 8.00128 19.5958 8.00006 19.1718ZM8.00006 13.8281C8.00128 13.4041 8.17024 12.9979 8.47003 12.6981C8.76982 12.3983 9.17608 12.2293 9.60006 12.2281C10.024 12.2295 10.4302 12.3985 10.7299 12.6982C11.0297 12.998 11.1987 13.4042 11.2001 13.8281C11.2007 14.0384 11.1598 14.2467 11.0796 14.4412C10.9994 14.6356 10.8816 14.8122 10.7329 14.9609C10.5842 15.1096 10.4075 15.2275 10.2131 15.3076C10.0187 15.3878 9.81035 15.4287 9.60006 15.4281C9.38974 15.4288 9.18136 15.3879 8.98692 15.3078C8.79248 15.2276 8.61582 15.1098 8.4671 14.9611C8.31838 14.8123 8.20056 14.6357 8.1204 14.4412C8.04025 14.2468 7.99935 14.0384 8.00006 13.8281ZM9.60006 10.1C9.33665 10.1025 9.07678 10.0392 8.84393 9.91607C8.61109 9.79289 8.41261 9.61363 8.26644 9.39449C8.12026 9.17535 8.03101 8.92323 8.00673 8.66093C7.98246 8.39864 8.02393 8.13442 8.1274 7.89218C8.20483 7.69621 8.31911 7.51691 8.46406 7.36399C8.64805 7.17285 8.87729 7.03123 9.13056 6.95224C9.38382 6.87325 9.65293 6.85945 9.91295 6.91211C10.173 6.96477 10.4155 7.08219 10.6181 7.25349C10.8207 7.4248 10.9767 7.64445 11.0719 7.89211C11.1756 8.13428 11.2173 8.39849 11.1932 8.66083C11.1691 8.92318 11.0799 9.17536 10.9338 9.39457C10.7877 9.61377 10.5892 9.79308 10.3563 9.91625C10.1234 10.0394 9.86349 10.1026 9.60006 10.1ZM4.46407 13.636C4.16415 13.334 3.99584 12.9256 3.99584 12.5C3.99584 12.0743 4.16415 11.666 4.46407 11.364C4.76589 11.0637 5.17432 10.8952 5.60006 10.8952C6.02581 10.8952 6.43423 11.0637 6.73606 11.364C7.03559 11.6662 7.20364 12.0744 7.20364 12.4999C7.20364 12.9254 7.03559 13.3337 6.73606 13.6358C6.43147 13.9313 6.02442 14.0976 5.60006 14.0998C5.17566 14.0979 4.76851 13.9317 4.46407 13.636Z" fill="black"/>
</svg>
