<svg width="30" height="30" viewBox="0 0 30 30" fill="none" xmlns="http://www.w3.org/2000/svg">
<path d="M15.3208 29.0191H14.4769C14.4378 29.0049 14.3985 29.0013 14.359 29.0013C13.9085 28.98 13.4612 28.9437 13.0179 28.8834C12.1886 28.7761 11.3731 28.5937 10.5794 28.3402C9.21709 27.9042 7.94775 27.2786 6.77136 26.4634C5.6805 25.7053 4.71546 24.8118 3.87503 23.7825C2.88423 22.5741 2.11218 21.2406 1.56487 19.7753C1.07484 18.4741 0.781718 17.1267 0.692124 15.7359C0.692124 15.6608 0.677892 15.5858 0.652985 15.5107V14.0415C0.677892 13.9767 0.688566 13.9091 0.692124 13.8413C0.709915 13.5087 0.745496 13.1762 0.788906 12.8476C1.0036 11.2605 1.47527 9.75518 2.20128 8.32879C2.70184 7.3456 3.30978 6.43087 4.02461 5.58674C4.73268 4.75043 5.5265 4.00301 6.40587 3.34902C7.8398 2.28357 9.41677 1.51508 11.14 1.04348C11.9766 0.814981 12.8315 0.664827 13.6965 0.593095C13.8501 0.578862 14.0113 0.593095 14.1649 0.553955H15.6094C15.7202 0.585978 15.8347 0.568188 15.9454 0.578862C16.5178 0.628676 17.0863 0.700622 17.6509 0.81128C19.4281 1.16162 21.0762 1.8267 22.5998 2.80925C23.7835 3.57062 24.8275 4.48926 25.7392 5.55806C26.4724 6.41607 27.0942 7.34916 27.6021 8.35683C28.2028 9.54745 28.6317 10.7947 28.8753 12.1065C29.0039 12.8 29.1006 13.5006 29.1039 14.2085C29.1039 14.2554 29.1146 14.3053 29.1182 14.3514V15.1951C29.1039 15.2485 29.1039 15.3057 29.1004 15.363C29.1004 15.4987 29.1004 15.6349 29.0897 15.7706C29.0249 16.6358 28.8894 17.49 28.6747 18.3336C28.2636 19.9173 27.6017 21.3865 26.6828 22.7411C25.9997 23.7493 25.2026 24.6574 24.287 25.4615C23.3754 26.2623 22.3775 26.938 21.2939 27.4846C20.0457 28.1135 18.7336 28.55 17.3568 28.7891C16.8278 28.882 16.2949 28.9426 15.7587 28.9749C15.6175 28.9912 15.4676 28.9878 15.3208 29.0191Z" fill="black"/>
<path style="mix-blend-mode:lighten" d="M11.1837 8.88103C11.1737 9.14255 11.2202 9.42843 11.2972 9.71438C11.444 10.2585 11.6873 10.757 11.9742 11.2279C12.6277 12.2987 13.4514 13.2155 14.3451 14.0667C14.4183 14.1367 14.5055 14.1958 14.5988 14.2408C14.6922 14.2894 14.7855 14.2894 14.8821 14.2477C14.9754 14.2061 15.0588 14.1468 15.1289 14.0698C15.4391 13.7491 15.7457 13.428 16.0392 13.0966C16.4527 12.6257 16.8464 12.1412 17.2032 11.6215C17.5269 11.1507 17.8168 10.6554 18.0301 10.1183C18.2433 9.58453 18.3469 9.03394 18.2769 8.45502C18.1602 7.49975 17.7702 6.69035 17.0731 6.05569C16.2488 5.30648 15.2887 5.0065 14.2082 5.1736C12.4509 5.44595 11.1769 7.06424 11.1837 8.88103Z" fill="url(#paint0_radial_48607_476)"/>
<path d="M20.2784 21.9018C20.0572 21.9085 19.8089 21.8812 19.5606 21.8284C18.826 21.6676 18.2021 21.3336 17.7226 20.7415C17.431 20.3804 17.1858 19.989 16.9745 19.5775C16.7261 19.0925 16.5185 18.5873 16.3375 18.0758C16.1163 17.4572 15.9285 16.825 15.7839 16.186C15.7036 15.8281 15.7939 15.6038 16.1898 15.4805C16.6927 15.3233 17.1994 15.1828 17.7158 15.0689C18.5709 14.8815 19.4328 14.7613 20.3119 14.791C20.5602 14.8009 20.808 14.8276 21.0532 14.8711C21.7643 14.995 22.3679 15.3228 22.8608 15.841C23.7029 16.724 24.0378 17.7776 23.8302 18.9786C23.5318 20.6947 22.0089 21.9153 20.2784 21.9018Z" fill="url(#paint1_radial_48607_476)"/>
<path d="M9.20257 21.9018C9.42376 21.9085 9.67212 21.8812 9.92041 21.8284C10.655 21.6676 11.2789 21.3336 11.7584 20.7415C12.05 20.3804 12.2952 19.989 12.5065 19.5775C12.7549 19.0925 12.9625 18.5873 13.1435 18.0758C13.3647 17.4572 13.5525 16.825 13.6971 16.186C13.7774 15.8281 13.6871 15.6038 13.2912 15.4805C12.7883 15.3233 12.2816 15.1828 11.7652 15.0689C10.9101 14.8815 10.0482 14.7613 9.16913 14.791C8.92077 14.8009 8.67295 14.8276 8.4278 14.8711C7.7167 14.995 7.11313 15.3228 6.62015 15.841C5.77811 16.724 5.44318 17.7776 5.65082 18.9786C5.94924 20.6947 7.47208 21.9153 9.20257 21.9018Z" fill="url(#paint2_radial_48607_476)"/>
<defs>
<radialGradient id="paint0_radial_48607_476" cx="0" cy="0" r="1" gradientUnits="userSpaceOnUse" gradientTransform="translate(14.8093 13.8039) rotate(4.82254) scale(3.77957 6.98654)">
<stop stop-color="white"/>
</radialGradient>
<radialGradient id="paint1_radial_48607_476" cx="0" cy="0" r="1" gradientUnits="userSpaceOnUse" gradientTransform="translate(15.7966 15.9673) rotate(21.7759) scale(8.33472 4.45388)">
<stop stop-color="white"/>
</radialGradient>
<radialGradient id="paint2_radial_48607_476" cx="0" cy="0" r="1" gradientUnits="userSpaceOnUse" gradientTransform="translate(13.6402 15.6653) rotate(146.321) scale(8.42283 3.82861)">
<stop stop-color="white"/>
</radialGradient>
</defs>
</svg>
