<svg width="33" height="32" viewBox="0 0 33 32" fill="none" xmlns="http://www.w3.org/2000/svg">
<g clip-path="url(#clip0_48603_370)">
<path d="M11.4261 26.6337C11.4261 26.7628 11.2777 26.8734 11.087 26.8761C10.8962 26.8787 10.7399 26.7733 10.7399 26.6442C10.7399 26.5152 10.8883 26.4045 11.079 26.4019C11.2698 26.3992 11.4261 26.502 11.4261 26.6337Z" fill="black"/>
<path d="M12.6449 26.4309C12.6687 26.5599 12.5362 26.6943 12.3455 26.7259C12.1547 26.7575 11.9878 26.6811 11.9639 26.5547C11.9401 26.4282 12.0779 26.2912 12.2633 26.257C12.4488 26.2227 12.621 26.3018 12.6449 26.4309Z" fill="black"/>
<path d="M10.1172 26.5441C10.0775 26.6679 9.89731 26.7233 9.71715 26.6706C9.53698 26.6179 9.41776 26.4704 9.4522 26.3439C9.48664 26.2175 9.66946 26.1595 9.85227 26.2175C10.0351 26.2754 10.1517 26.415 10.1172 26.5441Z" fill="black"/>
<path d="M8.91706 26.0278C8.82963 26.1252 8.65212 26.0989 8.5064 25.9672C8.36068 25.8355 8.32623 25.6563 8.41366 25.5615C8.50109 25.4667 8.67861 25.493 8.82962 25.6221C8.98064 25.7512 9.00979 25.9329 8.91706 26.0278Z" fill="black"/>
<path d="M8.06131 25.1426C7.96328 25.2111 7.79635 25.1426 7.70362 25.0057C7.67798 24.9811 7.65759 24.9516 7.64366 24.919C7.62973 24.8864 7.62254 24.8514 7.62254 24.816C7.62254 24.7806 7.62973 24.7455 7.64366 24.7129C7.65759 24.6803 7.67798 24.6509 7.70362 24.6263C7.80165 24.5605 7.96858 24.6263 8.06131 24.7607C8.15404 24.895 8.15669 25.0742 8.06131 25.1426Z" fill="black"/>
<path d="M7.43071 24.2285C7.37584 24.256 7.31307 24.2637 7.25314 24.2502C7.19321 24.2368 7.13985 24.203 7.10218 24.1547C6.99886 24.0441 6.97765 23.8913 7.05713 23.8228C7.13661 23.7543 7.2797 23.7859 7.38302 23.8966C7.48635 24.0072 7.5102 24.16 7.43071 24.2285Z" fill="black"/>
<path d="M6.78157 23.5093C6.74713 23.5884 6.61996 23.6121 6.51663 23.5568C6.4133 23.5014 6.33647 23.3987 6.37357 23.317C6.41066 23.2354 6.53518 23.2143 6.63851 23.2696C6.74184 23.3249 6.82132 23.4303 6.78157 23.5093Z" fill="black"/>
<path fill-rule="evenodd" clip-rule="evenodd" d="M17.161 0.799988C13.3626 0.801959 9.68878 2.14727 6.79643 4.59535C3.90408 7.04344 1.98181 10.4347 1.37333 14.1627C0.764852 17.8906 1.50984 21.7123 3.4751 24.9442C5.44036 28.1762 8.49772 30.6077 12.1005 31.8039C12.8953 31.9515 13.1947 31.4588 13.1947 31.04C13.1947 30.6211 13.1788 29.4067 13.1735 28.0789C8.72246 29.0405 7.78192 26.2006 7.78192 26.2006C7.05597 24.3566 6.00679 23.8718 6.00679 23.8718C4.55489 22.8866 6.11542 22.905 6.11542 22.905C7.72364 23.0183 8.56881 24.5462 8.56881 24.5462C9.99421 26.9778 12.3125 26.2744 13.2239 25.8634C13.3669 24.8334 13.7829 24.1327 14.2413 23.7349C10.6857 23.3344 6.94999 21.9698 6.94999 15.8739C6.92795 14.2929 7.51797 12.7641 8.59795 11.6036C8.43369 11.2031 7.88524 9.58563 8.75426 7.38856C8.75426 7.38856 10.0975 6.96179 13.155 9.01924C15.7775 8.30615 18.5444 8.30615 21.1669 9.01924C24.2217 6.96179 25.5623 7.38856 25.5623 7.38856C26.434 9.58036 25.8856 11.1979 25.7213 11.6036C26.8047 12.7642 27.396 14.2958 27.3719 15.8792C27.3719 21.9883 23.6282 23.3344 20.0674 23.727C20.6397 24.2222 21.151 25.189 21.151 26.6748C21.151 28.8034 21.1325 30.5157 21.1325 31.04C21.1325 31.4641 21.4213 31.9594 22.232 31.8039C25.8352 30.6075 28.8929 28.1756 30.8581 24.9431C32.8233 21.7106 33.5679 17.8884 32.9587 14.1601C32.3496 10.4317 30.4263 7.04046 27.533 4.59279C24.6397 2.14513 20.9651 0.800709 17.1662 0.799988H17.161Z" fill="black"/>
</g>
<defs>
<clipPath id="clip0_48603_370">
<rect width="32" height="32" fill="white" transform="translate(0.722321)"/>
</clipPath>
</defs>
</svg>
