<svg width="34" height="34" viewBox="0 0 34 34" fill="none" xmlns="http://www.w3.org/2000/svg">
<path d="M33.375 2.9375L31.5625 1.125C31.1875 0.75 30.6875 0.5 30.125 0.5C29.5625 0.5 29.0625 0.75 28.6875 1.125L25.8125 4C25.5625 4.25 25.375 4.5625 25.25 4.875L24.5 7.125L19.75 11.9375C19 11.375 18.1875 10.9375 17.25 10.75C15.125 10.25 13.0625 10.6875 11.625 12.125C11.0625 12.6875 10.625 13.375 10.375 14.1875C10 15.375 8.9375 16.25 7.75 16.375C6.25 16.5 4.875 17.0625 3.8125 18.125C0.9375 20.9375 1.5 26.0625 4.9375 29.5625C8.4375 33 13.5625 33.5 16.375 30.6875C17.4375 29.625 18 28.25 18.1875 26.75C18.25 25.5625 19.125 24.5 20.3125 24.125C21.125 23.875 21.8125 23.4375 22.375 22.875C23.8125 21.4375 24.25 19.375 23.75 17.25C23.5625 16.375 23.125 15.5 22.5625 14.75L27.375 10L29.625 9.25C29.9375 9.125 30.25 8.9375 30.5 8.6875L33.375 5.8125C33.75 5.4375 33.9375 4.9375 33.9375 4.375C33.9375 3.8125 33.75 3.3125 33.375 2.9375ZM15 22.5C13.3125 22.5 12 21.1875 12 19.5C12 17.875 13.3125 16.5 15 16.5C16.625 16.5 18 17.875 18 19.5C18 21.1875 16.625 22.5 15 22.5Z" fill="black"/>
</svg>
