<svg width="34" height="33" viewBox="0 0 34 33" fill="none" xmlns="http://www.w3.org/2000/svg">
<path d="M25.7648 7.78505L21.2218 3.24198C21.073 3.09205 20.8961 2.97304 20.7012 2.89183C20.5062 2.81062 20.2972 2.7688 20.086 2.7688C19.8748 2.7688 19.6657 2.81062 19.4708 2.89183C19.2759 2.97304 19.0989 3.09205 18.9502 3.24198C18.6523 3.5417 18.485 3.94714 18.485 4.36975C18.485 4.79236 18.6523 5.1978 18.9502 5.49752L22.3415 8.88882L9.38418 21.8462L5.99288 18.4549C5.69316 18.1569 5.28772 17.9897 4.86511 17.9897C4.4425 17.9897 4.03706 18.1569 3.73734 18.4549C3.58741 18.6036 3.4684 18.7805 3.38719 18.9754C3.30598 19.1704 3.26416 19.3794 3.26416 19.5906C3.26416 19.8018 3.30598 20.0109 3.38719 20.2058C3.4684 20.4008 3.58741 20.5777 3.73734 20.7264L8.23242 25.2215L12.7275 29.7165C12.8757 29.8677 13.0523 29.9879 13.2473 30.0703C13.4422 30.1527 13.6516 30.1956 13.8633 30.1964C14.181 30.1983 14.4921 30.1055 14.7569 29.9298C15.0216 29.7542 15.2281 29.5037 15.35 29.2102C15.4718 28.9168 15.5035 28.5937 15.441 28.2822C15.3785 27.9706 15.2246 27.6848 14.999 27.461L11.6557 24.1177L24.6131 11.1604L28.0044 14.5517C28.1535 14.6998 28.3304 14.817 28.5248 14.8968C28.7193 14.9765 28.9276 15.0172 29.1378 15.0165C29.348 15.0157 29.556 14.9736 29.7499 14.8925C29.9438 14.8113 30.1198 14.6928 30.2679 14.5437C30.416 14.3945 30.5333 14.2176 30.613 14.0232C30.6928 13.8287 30.7334 13.6204 30.7327 13.4102C30.7319 13.2 30.6898 12.9921 30.6087 12.7982C30.5276 12.6043 30.409 12.4282 30.2599 12.2801L25.7648 7.78505ZM3.73734 25.2375C3.43612 24.9362 3.02757 24.767 2.60158 24.767C2.17558 24.767 1.76704 24.9362 1.46581 25.2375C1.16459 25.5387 0.995361 25.9472 0.995361 26.3732C0.995361 26.7992 1.16459 27.2078 1.46581 27.509L5.99288 32.0361C6.14235 32.1843 6.31962 32.3016 6.51452 32.3812C6.70942 32.4608 6.91812 32.5012 7.12865 32.5C7.33918 32.5012 7.54787 32.4608 7.74277 32.3812C7.93767 32.3016 8.11494 32.1843 8.26441 32.0361C8.41435 31.8874 8.53336 31.7104 8.61457 31.5155C8.69578 31.3206 8.73759 31.1115 8.73759 30.9003C8.73759 30.6891 8.69578 30.48 8.61457 30.2851C8.53336 30.0902 8.41435 29.9132 8.26441 29.7645L3.73734 25.2375ZM32.5314 5.49752L28.0044 0.97045C27.7031 0.669226 27.2946 0.5 26.8686 0.5C26.4426 0.5 26.034 0.669226 25.7328 0.97045C25.4316 1.27167 25.2624 1.68022 25.2624 2.10622C25.2624 2.53221 25.4316 2.94076 25.7328 3.24198L30.2599 7.76905C30.4086 7.91899 30.5855 8.03799 30.7805 8.11921C30.9754 8.20042 31.1845 8.24223 31.3957 8.24223C31.6068 8.24223 31.8159 8.20042 32.0109 8.11921C32.2058 8.03799 32.3827 7.91899 32.5314 7.76905C32.6814 7.62034 32.8004 7.44342 32.8816 7.24848C32.9628 7.05355 33.0046 6.84446 33.0046 6.63329C33.0046 6.42211 32.9628 6.21303 32.8816 6.01809C32.8004 5.82316 32.6814 5.64623 32.5314 5.49752Z" fill="black"/>
</svg>
