<svg width="32" height="33" viewBox="0 0 32 33" fill="none" xmlns="http://www.w3.org/2000/svg">
<g clip-path="url(#clip0_48605_131)">
<path d="M0 0.900024V32.1H32V0.900024H0ZM1.3335 2.23352H30.667V30.767H1.3335V2.23352ZM11.1065 18.5665L10.053 22.5665C10.0265 22.673 9.9865 22.7 9.853 22.7H7.893C7.7595 22.7 7.733 22.66 7.7595 22.5L11.546 9.24652C11.6125 9.00653 11.6525 8.79302 11.6795 8.14002C11.6795 8.04652 11.7195 8.00652 11.786 8.00652H14.586C14.6795 8.00652 14.7195 8.03302 14.746 8.14002L18.986 22.5265C19.0125 22.633 18.986 22.7 18.8795 22.7H16.666C16.5595 22.7 16.4925 22.6735 16.466 22.58L15.3595 18.5665H11.1065ZM14.813 16.4065L13.2265 10.14H13.2C12.92 11.7 12.2135 14.34 11.6535 16.4065H14.813ZM20.813 8.99302C20.813 8.13952 21.413 7.63302 22.173 7.63302C22.9865 7.63302 23.533 8.17952 23.533 8.99302C23.533 9.87302 22.9595 10.353 22.1465 10.353C21.373 10.353 20.813 9.87302 20.813 8.99302ZM20.973 12.0195C20.973 11.913 21.013 11.8595 21.133 11.8595H23.2265C23.333 11.8595 23.3865 11.8995 23.3865 12.0195V22.5395C23.3865 22.646 23.36 22.6995 23.2265 22.6995H21.16C21.0265 22.6995 20.9865 22.633 20.9865 22.526V12.02L20.973 12.0195Z" fill="black"/>
</g>
<defs>
<clipPath id="clip0_48605_131">
<rect width="32" height="32" fill="white" transform="translate(0 0.5)"/>
</clipPath>
</defs>
</svg>
