<svg width="33" height="32" viewBox="0 0 33 32" fill="none" xmlns="http://www.w3.org/2000/svg">
<g clip-path="url(#clip0_48603_394)">
<path d="M30.3601 0H3.08454C2.45804 0 1.8572 0.248877 1.4142 0.691879C0.971197 1.13488 0.722321 1.73572 0.722321 2.36222V29.6378C0.722321 30.2643 0.971197 30.8651 1.4142 31.3081C1.8572 31.7511 2.45804 32 3.08454 32H30.3601C30.9866 32 31.5874 31.7511 32.0304 31.3081C32.4734 30.8651 32.7223 30.2643 32.7223 29.6378V2.36222C32.7223 1.73572 32.4734 1.13488 32.0304 0.691879C31.5874 0.248877 30.9866 0 30.3601 0ZM10.2601 27.26H5.44899V11.9778H10.2601V27.26ZM7.85121 9.86C7.30547 9.85693 6.77287 9.69226 6.32063 9.38678C5.86839 9.08131 5.51677 8.64871 5.31016 8.14359C5.10354 7.63846 5.05118 7.08346 5.1597 6.54861C5.26821 6.01376 5.53272 5.52304 5.91986 5.13838C6.307 4.75372 6.79941 4.49236 7.33494 4.38728C7.87048 4.28221 8.42514 4.33812 8.92892 4.54798C9.43271 4.75784 9.86304 5.11222 10.1656 5.56642C10.4682 6.02061 10.6294 6.55426 10.629 7.1C10.6341 7.46538 10.5657 7.82805 10.4277 8.16641C10.2897 8.50476 10.085 8.81187 9.82575 9.06942C9.56653 9.32698 9.25812 9.52971 8.91889 9.66553C8.57965 9.80136 8.21655 9.86749 7.85121 9.86ZM27.9934 27.2733H23.1845V18.9244C23.1845 16.4622 22.1379 15.7022 20.7868 15.7022C19.3601 15.7022 17.9601 16.7778 17.9601 18.9867V27.2733H13.149V11.9889H17.7757V14.1067H17.8379C18.3023 13.1667 19.929 11.56 22.4112 11.56C25.0957 11.56 27.9957 13.1533 27.9957 17.82L27.9934 27.2733Z" fill="black"/>
</g>
<defs>
<clipPath id="clip0_48603_394">
<rect width="32" height="32" fill="white" transform="translate(0.722321)"/>
</clipPath>
</defs>
</svg>
