<svg width="32" height="32" viewBox="0 0 32 32" fill="none" xmlns="http://www.w3.org/2000/svg">
<path fill-rule="evenodd" clip-rule="evenodd" d="M29.4758 24.4263C27.7353 24.3778 26.3851 24.5562 25.2535 25.0323C24.9276 25.1631 24.4047 25.1631 24.3618 25.5733C24.5359 25.7453 24.5569 26.027 24.7096 26.2655C24.9706 26.6984 25.4281 27.2816 25.8413 27.5841L27.2339 28.5793C28.0826 29.098 29.0402 29.4009 29.867 29.9201C30.346 30.2231 30.8245 30.6124 31.3035 30.9372C31.5474 31.1102 31.6952 31.3919 32 31.4995V31.434C31.8479 31.2401 31.804 30.959 31.6523 30.7418L30.9986 30.115C30.3679 29.2715 29.584 28.5356 28.7353 27.9307C28.0387 27.4546 26.5159 26.806 26.2329 26.0061L26.19 25.9577C26.6681 25.9092 27.2339 25.741 27.6914 25.6111C28.4319 25.4172 29.106 25.4598 29.867 25.2654L30.9123 24.9625V24.7686C30.5206 24.3793 30.2377 23.8601 29.8245 23.4927C28.7148 22.5411 27.4953 21.6108 26.2329 20.8323C25.5583 20.3999 24.6876 20.1182 23.9696 19.7513C23.7077 19.6213 23.2731 19.5564 23.1209 19.3402C22.7282 18.8651 22.5111 18.2373 22.2282 17.6745L20.4439 13.9113C20.0522 13.0678 19.8122 12.2244 19.3342 11.4458C17.0923 7.7689 14.6544 5.54141 10.9111 3.35659C10.1062 2.90237 9.14873 2.70701 8.13072 2.46947L6.49858 2.38222C6.14981 2.23097 5.80202 1.81989 5.49716 1.62502C4.25672 0.846488 1.05733 -0.840485 0.14273 1.38264C-0.445053 2.78845 1.01343 4.17244 1.50853 4.8865C1.87925 5.38387 2.35728 5.94619 2.61922 6.50851C2.76555 6.87596 2.81434 7.26571 2.96701 7.65498C3.3148 8.60657 3.64162 9.66674 4.09868 10.5539C4.34257 11.0081 4.59866 11.4846 4.90352 11.8952C5.07766 12.1376 5.38253 12.2413 5.4474 12.6306C5.14253 13.0635 5.12156 13.7116 4.94742 14.2531C4.16355 16.6973 4.46842 19.7251 5.57813 21.5245C5.9269 22.065 6.74882 23.2551 7.8639 22.8004C8.84337 22.4111 8.62485 21.1784 8.90776 20.0969C8.97361 19.8375 8.92971 19.6645 9.05995 19.4909V19.5394L9.9526 21.3345C10.6272 22.3942 11.8028 23.4975 12.7818 24.2334C13.3037 24.6226 13.7173 25.2935 14.37 25.5311V25.4656H14.3271C14.1963 25.2717 14.0002 25.1845 13.8261 25.0332C13.4344 24.644 12.9993 24.1679 12.6944 23.7355C11.7808 22.5246 10.976 21.1832 10.2575 19.7992C9.9087 19.1288 9.60383 18.3934 9.32189 17.723C9.19019 17.4632 9.19019 17.0734 8.97313 16.9445C8.64631 17.4196 8.16828 17.8316 7.9278 18.4153C7.51415 19.345 7.47123 20.4915 7.31904 21.6811C7.23124 21.7029 7.27026 21.6811 7.23124 21.7296C6.53566 21.557 6.29567 20.8425 6.0347 20.2375C5.38204 18.7017 5.27277 16.2362 5.83861 14.4625C5.9908 14.0083 6.64443 12.5807 6.38347 12.1482C6.25176 11.7372 5.81763 11.4996 5.57764 11.1748C5.29472 10.7638 4.99083 10.2451 4.79474 9.79084C4.27281 8.57894 4.01185 7.23857 3.44553 6.02715C3.18359 5.46482 2.72702 4.88068 2.35679 4.36199C1.94315 3.77785 1.48707 3.36677 1.16025 2.67501C1.05147 2.43263 0.899285 2.04773 1.07342 1.7879C1.11635 1.61484 1.20415 1.54552 1.37732 1.50673C1.66023 1.26435 2.46605 1.57169 2.74897 1.70064C3.55382 2.02543 4.22842 2.32792 4.90303 2.78166C5.2079 2.99786 5.53472 3.40894 5.92641 3.51753H6.38395C7.08051 3.66878 7.86341 3.56601 8.51558 3.75991C9.6692 4.12833 10.7135 4.66836 11.6501 5.25298C14.5007 7.04806 16.8518 9.60033 18.4401 12.6505C18.701 13.1478 18.8098 13.602 19.0498 14.1212C19.5074 15.1814 20.0732 16.2624 20.5293 17.3013C20.9868 18.3178 21.4219 19.3567 22.0746 20.2001C22.4014 20.6544 23.7067 20.8919 24.294 21.1299C24.7296 21.3238 25.4037 21.4983 25.7964 21.7359C26.5359 22.1901 27.2758 22.7093 27.9719 23.2066C28.3197 23.4655 29.4084 24.0065 29.4733 24.4379L29.4758 24.4263ZM7.28148 5.63109C6.98079 5.62845 6.68104 5.66479 6.38981 5.7392V5.78767H6.43273C6.60687 6.13379 6.91174 6.37181 7.12929 6.67479L7.63025 7.71315L7.67317 7.66467C7.97804 7.44847 8.13072 7.10235 8.13072 6.58365C7.99999 6.43241 7.97853 6.28068 7.86975 6.12943C7.73902 5.91323 7.45611 5.80464 7.28148 5.63206V5.63109Z" fill="black"/>
</svg>
