<svg width="32" height="33" viewBox="0 0 32 33" fill="none" xmlns="http://www.w3.org/2000/svg">
<g clip-path="url(#clip0_1_696)">
<path d="M17.3333 4.50004C17.3333 3.03337 18.5333 1.83337 20 1.83337C21.4667 1.83337 22.6667 3.03337 22.6667 4.50004C22.6667 5.96671 21.4667 7.16671 20 7.16671C18.5333 7.16671 17.3333 5.96671 17.3333 4.50004ZM9.66667 30.5C9.12 30.5 8.66667 30.9534 8.66667 31.5C8.66667 32.0467 9.12 32.5 9.66667 32.5C10.2133 32.5 10.6667 32.0467 10.6667 31.5C10.6667 30.9534 10.2133 30.5 9.66667 30.5ZM21 30.5C20.4533 30.5 20 30.9534 20 31.5C20 32.0467 20.4533 32.5 21 32.5C21.5467 32.5 22 32.0467 22 31.5C22 30.9534 21.5467 30.5 21 30.5ZM25.6533 25.8334C25.3333 25.8334 25.0533 25.98 24.8667 26.2334C24.1333 27.2067 22.9733 27.8334 21.6667 27.8334H21.3333V19.8334L15.5733 16.2734L17.9733 12.42C19.5067 14.8734 22.24 16.5 25.3333 16.5V13.8334C22.8667 13.8334 20.7467 12.34 19.8267 10.2067L19.1333 8.59337C18.88 8.02004 18.1467 7.16671 16.9333 7.16671H9.33333L6 12.5L8.26667 13.9134L10.8 9.83337H13.9333L10.7333 14.9534C10.32 15.62 10.2133 16.4334 10.4533 17.18L12.24 22.7134L8.08 27.7267C7.14667 27.5134 6.34667 26.9667 5.8 26.2334C5.61333 25.98 5.32 25.8334 5 25.8334C4.41333 25.8334 4 26.3134 4 26.8334C4 27.0334 4.06667 27.2467 4.2 27.4334C5.29333 28.9 7.04 29.8334 9 29.8334H21.6667C23.6267 29.8334 25.3733 28.9 26.4667 27.4334C26.6 27.2467 26.6667 27.0334 26.6667 26.8334C26.6667 26.3134 26.24 25.8334 25.6533 25.8334ZM18.6667 27.8334H11.4667L15.3333 23.1667L14 18.7667L18.6667 21.7V27.8334Z" fill="black"/>
</g>
<defs>
<clipPath id="clip0_1_696">
<rect width="32" height="32" fill="white" transform="translate(0 0.5)"/>
</clipPath>
</defs>
</svg>
