<svg width="36" height="35" viewBox="0 0 36 35" fill="none" xmlns="http://www.w3.org/2000/svg">
<path d="M6.69792 0.5H29.3021C32.7292 0.5 35.5 3.26068 35.5 6.67521V28.3248C35.5 31.7393 32.7292 34.5 29.3021 34.5H6.69792C3.27083 34.5 0.5 31.7393 0.5 28.3248V6.67521C0.5 3.26068 3.27083 0.5 6.69792 0.5Z" fill="black"/>
<path d="M8.375 24.3436V9.39233C8.375 9.29062 8.41875 9.2325 8.52083 9.2325C8.76875 9.2325 9.00208 9.2325 9.3375 9.21797C9.6875 9.20344 10.0521 9.20344 10.4458 9.18891C10.8396 9.17438 11.2625 9.17438 11.7146 9.15985C12.1667 9.14532 12.6042 9.14532 13.0417 9.14532C14.2375 9.14532 15.2292 9.29062 16.0458 9.59575C16.775 9.84276 17.4458 10.2496 18 10.7872C18.4667 11.2522 18.8313 11.8188 19.0646 12.4436C19.2833 13.0539 19.4 13.6787 19.4 14.3325C19.4 15.5821 19.1083 16.6137 18.525 17.4274C17.9417 18.2411 17.125 18.8513 16.1771 19.2C15.1854 19.5633 14.0917 19.694 12.8958 19.694C12.5458 19.694 12.3125 19.694 12.1667 19.6795C12.0208 19.665 11.8167 19.665 11.5396 19.665V24.3291C11.5542 24.4308 11.4812 24.518 11.3792 24.5325C11.3646 24.5325 11.35 24.5325 11.3208 24.5325H8.55C8.43333 24.5325 8.375 24.4744 8.375 24.3436ZM11.5542 12.0368V16.9188C11.7583 16.9334 11.9479 16.9479 12.1229 16.9479H12.8958C13.4646 16.9479 14.0333 16.8607 14.5729 16.6864C15.0396 16.5556 15.4479 16.2795 15.7687 15.9163C16.075 15.553 16.2208 15.059 16.2208 14.4197C16.2354 13.9693 16.1187 13.5188 15.8854 13.1265C15.6375 12.7487 15.2875 12.4581 14.8646 12.2983C14.325 12.0804 13.7417 11.9932 13.1437 12.0077C12.7646 12.0077 12.4292 12.0077 12.1521 12.0222C11.8604 12.0077 11.6563 12.0222 11.5542 12.0368Z" fill="white"/>
<path d="M28.5 16.0325C28.0625 15.8001 27.5958 15.6402 27.1 15.5385C26.5604 15.4223 26.0208 15.3496 25.4667 15.3496C25.175 15.3351 24.8687 15.3787 24.5917 15.4513C24.4021 15.4949 24.2417 15.5966 24.1396 15.7419C24.0667 15.8582 24.0229 16.0035 24.0229 16.1342C24.0229 16.265 24.0812 16.3958 24.1687 16.512C24.3 16.6719 24.475 16.8026 24.6646 16.9043C25 17.0787 25.35 17.2385 25.7 17.3838C26.4875 17.6454 27.2458 18.0086 27.9458 18.4445C28.4271 18.7496 28.8208 19.1565 29.0979 19.6505C29.3312 20.1154 29.4479 20.624 29.4333 21.1471C29.4479 21.83 29.2437 22.5129 28.8646 23.0795C28.4562 23.6607 27.8875 24.1112 27.2312 24.3727C26.5167 24.6778 25.6417 24.8377 24.5917 24.8377C23.9208 24.8377 23.2646 24.7795 22.6083 24.6488C22.0979 24.5616 21.5875 24.4018 21.1208 24.1838C21.0187 24.1257 20.9458 24.024 20.9604 23.9078V21.3795C20.9604 21.336 20.975 21.2778 21.0187 21.2488C21.0625 21.2197 21.1062 21.2342 21.15 21.2633C21.7187 21.5975 22.3167 21.83 22.9583 21.9753C23.5125 22.1206 24.0958 22.1932 24.6792 22.1932C25.2333 22.1932 25.6271 22.1206 25.8896 21.9898C26.1229 21.8881 26.2833 21.6411 26.2833 21.3795C26.2833 21.1761 26.1667 20.9872 25.9333 20.7984C25.7 20.6095 25.2187 20.3915 24.5042 20.1154C23.7604 19.8539 23.075 19.5052 22.4333 19.0693C21.9812 18.7496 21.6021 18.3283 21.325 17.8342C21.0917 17.3693 20.975 16.8607 20.9896 16.3522C20.9896 15.7274 21.1646 15.1317 21.4854 14.5941C21.85 14.0129 22.3896 13.5479 23.0167 13.2573C23.7021 12.9086 24.5625 12.7488 25.5979 12.7488C26.1958 12.7488 26.8083 12.7924 27.4062 12.8795C27.8437 12.9377 28.2667 13.0539 28.6604 13.2137C28.7187 13.2283 28.7771 13.2864 28.8062 13.3445C28.8208 13.4026 28.8354 13.4607 28.8354 13.5189V15.8872C28.8354 15.9454 28.8062 16.0035 28.7625 16.0325C28.6312 16.0616 28.5583 16.0616 28.5 16.0325Z" fill="white"/>
</svg>
