<svg width="26" height="32" viewBox="0 0 26 32" fill="none" xmlns="http://www.w3.org/2000/svg">
<path d="M0.722321 0V32H17.9108V24.5333H25.2775V0H0.722321ZM5.98424 3.55566C6.44936 3.55566 6.89538 3.74286 7.22425 4.07619C7.55341 4.40952 7.73811 4.86187 7.73811 5.33333C7.73811 5.8048 7.55341 6.25714 7.22425 6.59048C6.89538 6.92381 6.44932 7.11101 5.98424 7.11101C5.51883 7.11101 5.0728 6.92381 4.74393 6.59048C4.41506 6.25714 4.23008 5.8048 4.23008 5.33333C4.23008 4.86187 4.41506 4.40952 4.74393 4.07619C5.0728 3.74286 5.51886 3.55566 5.98424 3.55566ZM5.98424 8C6.68191 8 7.35114 8.28095 7.8444 8.78095C8.338 9.28125 8.6152 9.95954 8.6152 10.6667H3.35328C3.35328 9.95953 3.63047 9.28122 4.12378 8.78095C4.61708 8.28095 5.28629 8 5.98424 8ZM22.6472 22.2225H3.35328V21.3335H22.6472V22.2225ZM22.6472 18.6668H3.35328V17.7778H22.6472V18.6668ZM22.6472 15.1112H3.35328V14.2225H22.6472V15.1112ZM22.6472 10.6668H10.3697L10.3694 9.77783H22.6469L22.6472 10.6668ZM22.6472 7.11116H10.3697L10.3694 6.22248H22.6469L22.6472 7.11116Z" fill="black"/>
<path d="M18.7775 32L25.2777 25.4116H18.7775V32Z" fill="black"/>
</svg>
